<svg height="100%" viewBox="0 0 24 24" fill="none" xmlns="http://www.w3.org/2000/svg">
<path d="M19.1928 11.6428C19.3912 14.1784 18.9452 16.7231 17.8961 19.04C17.8417 19.1962 17.7369 19.3298 17.5982 19.4198C17.4594 19.5097 17.2947 19.5509 17.1299 19.5368H17.1275C12.4392 19.5251 7.751 19.5243 3.063 19.5344H3.0606C2.92201 19.5422 2.78424 19.5084 2.66506 19.4372C2.54588 19.3661 2.45074 19.2608 2.3919 19.1351C1.82862 18.0879 1.44733 16.9527 1.2643 15.7778C1.1907 15.3478 1.1457 14.9108 1.1026 14.4878C1.082 14.2886 1.0614 14.0894 1.0384 13.8907C1.0333 13.8513 1.0253 13.8115 1.0178 13.7717L1.0037 13.6981L1 11.9446L1.0384 11.5552C1.0656 11.2712 1.0928 10.9872 1.1289 10.7041C1.27727 9.24975 1.69741 7.83618 2.3675 6.5369C2.42866 6.39748 2.53107 6.28014 2.66095 6.20071C2.79082 6.12127 2.94192 6.08354 3.0939 6.0926H3.0986C7.815 6.10393 12.5313 6.10487 17.2475 6.0954H17.25C17.3726 6.0874 17.4946 6.11806 17.5988 6.18305C17.7031 6.24805 17.7843 6.34411 17.8311 6.4577C18.139 7.0801 18.1211 7.1921 17.6493 7.6767L17.0461 8.3075L16.847 7.8482C16.8016 7.75662 16.7643 7.66126 16.7354 7.5632C16.7626 7.5632 16.7289 7.56 16.667 7.56C13.1165 7.5628 9.56583 7.56373 6.0151 7.5628L4.3538 7.5642C4.0726 7.5656 3.79 7.5675 3.5079 7.5586C3.059 8.49818 2.76375 9.50369 2.6334 10.5368C2.29899 12.6717 2.4398 14.854 3.0458 16.9282C3.1142 17.1545 3.2033 17.3743 3.2923 17.5946C3.3523 17.7446 3.4123 17.8946 3.4676 18.0464C3.4695 18.06 3.4887 18.0647 3.5534 18.0647C6.28673 18.0623 9.01923 18.0613 11.7509 18.0618H14.2085C15.0263 18.0632 15.8455 18.0608 16.6642 18.066C16.6847 18.0598 16.7063 18.058 16.7275 18.0608C16.7275 18.059 16.7368 18.0454 16.7504 18.0121C17.4971 16.1913 17.8386 14.2297 17.751 12.2637C17.7367 12.1278 17.7557 11.9905 17.8064 11.8636C17.8571 11.7367 17.938 11.624 18.042 11.5354C18.1981 11.4 18.3434 11.2519 18.4971 11.0954L19.074 10.5208L19.1504 11.2252C19.1675 11.371 19.183 11.5069 19.1928 11.6428ZM10.985 11.8428V10.6718H3.8587V11.8424L10.985 11.8428ZM9.765 12.357H3.8569V13.5159H9.7651L9.765 12.357ZM12.3828 8.8941H3.8559V10.0573H12.3829L12.3828 8.8941ZM15.1892 15.3777H7.9141V16.2838H15.1893L15.1892 15.3777ZM21.4111 4.4637L13.7543 12.1329L15.3781 13.7541C15.4216 13.692 15.4691 13.6328 15.5202 13.5767C17.9485 11.1473 20.3778 8.71883 22.8082 6.2913C22.8694 6.23566 22.9334 6.18319 23 6.1341V6.0916L21.4111 4.4637ZM13.0247 13.748C13.0193 13.784 13.0212 13.8207 13.0303 13.856C13.0393 13.8913 13.0554 13.9244 13.0775 13.9533C13.2121 14.1072 13.3617 14.2482 13.5099 14.3897C13.542 14.4204 13.5975 14.4567 13.6334 14.449C14.0573 14.359 14.4796 14.2618 14.8847 14.1703L13.2847 12.5686C13.1964 12.9633 13.1041 13.3545 13.0247 13.748ZM12.8313 14.6265L13.3224 14.5182L12.9491 14.0693C12.9065 14.2708 12.872 14.4341 12.8313 14.6265Z" fill="#f7c239"></path>
</svg>