<svg height="100%" viewBox="0 0 24 24" fill="none" xmlns="http://www.w3.org/2000/svg">
<path d="M21.7507 20.7782H2.2493C1.91797 20.7782 1.6002 20.6466 1.36591 20.4123C1.13162 20.178 1 19.8602 1 19.5289V4.4711C1 4.13977 1.13162 3.822 1.36591 3.58771C1.6002 3.35342 1.91797 3.2218 2.2493 3.2218H21.7507C21.9148 3.2218 22.0772 3.25412 22.2288 3.3169C22.3804 3.37968 22.5181 3.47171 22.6341 3.58771C22.7501 3.70372 22.8421 3.84144 22.9049 3.99302C22.9677 4.14459 23 4.30704 23 4.4711V19.5289C23 19.693 22.9677 19.8554 22.9049 20.007C22.8421 20.1586 22.7501 20.2963 22.6341 20.4123C22.5181 20.5283 22.3804 20.6203 22.2288 20.6831C22.0772 20.7459 21.9148 20.7782 21.7507 20.7782ZM21.4173 18.6216V5.3784C21.4173 5.20672 21.3491 5.04206 21.2277 4.92066C21.1063 4.79925 20.9417 4.73103 20.77 4.731H3.23C3.14497 4.73099 3.06078 4.74772 2.98222 4.78025C2.90366 4.81278 2.83228 4.86047 2.77215 4.92059C2.71203 4.9807 2.66433 5.05208 2.63179 5.13063C2.59925 5.20918 2.5825 5.29338 2.5825 5.3784V18.6216C2.5825 18.7066 2.59925 18.7908 2.63179 18.8694C2.66433 18.9479 2.71203 19.0193 2.77215 19.0794C2.83228 19.1395 2.90366 19.1872 2.98222 19.2197C3.06078 19.2523 3.14497 19.269 3.23 19.269H20.77C20.9417 19.269 21.1063 19.2008 21.2277 19.0793C21.3491 18.9579 21.4173 18.7933 21.4173 18.6216ZM20.0668 6.2516H4.1715C4.12347 6.24609 4.07518 6.25944 4.03681 6.28884C3.99843 6.31824 3.97298 6.3614 3.9658 6.4092V7.3282C3.97298 7.37601 3.99843 7.41916 4.03681 7.44856C4.07518 7.47796 4.12347 7.49131 4.1715 7.4858H20.0668C20.1148 7.49129 20.1631 7.47793 20.2015 7.44853C20.2398 7.41913 20.2653 7.376 20.2725 7.3282V6.4092C20.2653 6.36144 20.2398 6.31835 20.2014 6.289C20.163 6.25964 20.1148 6.24611 20.0668 6.2516ZM20.0668 9.0671H12.6679C12.5543 9.0671 12.4622 9.1252 12.4622 9.1971V9.8453C12.4622 9.9169 12.5543 9.9753 12.6679 9.9753H20.0666C20.1802 9.9753 20.2723 9.9173 20.2723 9.8453V9.197C20.2723 9.1254 20.1802 9.0671 20.0668 9.0671ZM20.0668 11.474H12.6679C12.6193 11.4689 12.5707 11.4829 12.5323 11.5131C12.4939 11.5432 12.4687 11.5872 12.4622 11.6356V12.4437C12.4687 12.4921 12.4939 12.5361 12.5323 12.5662C12.5707 12.5964 12.6193 12.6104 12.6679 12.6053H20.0666C20.1152 12.6104 20.1638 12.5964 20.2022 12.5662C20.2406 12.5361 20.2658 12.4921 20.2723 12.4437V11.6356C20.2657 11.5872 20.2406 11.5433 20.2022 11.5132C20.1638 11.4831 20.1153 11.4689 20.0668 11.474ZM20.0668 13.8809H12.6679C12.6193 13.8758 12.5706 13.8898 12.5322 13.92C12.4938 13.9502 12.4687 13.9942 12.4622 14.0426V14.8506C12.4687 14.899 12.4939 14.943 12.5323 14.9731C12.5707 15.0033 12.6193 15.0173 12.6679 15.0122H20.0666C20.1152 15.0173 20.1638 15.0033 20.2022 14.9731C20.2406 14.943 20.2658 14.899 20.2723 14.8506V14.0426C20.2658 13.9942 20.2406 13.9503 20.2022 13.9201C20.1638 13.89 20.1154 13.8758 20.0668 13.8809ZM20.0668 16.2879H12.6679C12.6193 16.2828 12.5707 16.2968 12.5323 16.327C12.4939 16.3571 12.4687 16.4011 12.4622 16.4495V17.2575C12.4687 17.3059 12.4939 17.3499 12.5323 17.38C12.5707 17.4102 12.6193 17.4242 12.6679 17.4191H20.0666C20.1152 17.4242 20.1638 17.4102 20.2022 17.38C20.2406 17.3499 20.2658 17.3059 20.2723 17.2575V16.45C20.2658 16.4015 20.2407 16.3575 20.2023 16.3273C20.1639 16.297 20.1154 16.2828 20.0668 16.2879ZM11.1812 16.2879H4.1715C4.12292 16.2828 4.07425 16.2968 4.03584 16.3269C3.99743 16.3571 3.9723 16.4011 3.9658 16.4495V17.2575C3.9723 17.3059 3.99743 17.3499 4.03584 17.3801C4.07425 17.4102 4.12292 17.4242 4.1715 17.4191H11.181C11.2296 17.4242 11.2782 17.4102 11.3166 17.38C11.355 17.3499 11.3802 17.3059 11.3867 17.2575V16.45C11.3802 16.4015 11.3551 16.3575 11.3167 16.3273C11.2783 16.297 11.2298 16.2828 11.1812 16.2879ZM10.8112 8.8086H4.5373C4.46169 8.80859 4.38683 8.82347 4.31697 8.8524C4.24712 8.88132 4.18365 8.92373 4.13019 8.97719C4.07673 9.03065 4.03432 9.09412 4.0054 9.16398C3.97647 9.23383 3.96159 9.3087 3.9616 9.3843V14.6153C3.9616 14.768 4.02225 14.9144 4.13022 15.0224C4.23818 15.1303 4.38461 15.191 4.5373 15.191H10.8109C10.9636 15.191 11.11 15.1304 11.218 15.0224C11.326 14.9144 11.3867 14.768 11.3867 14.6153V9.3845C11.3867 9.30889 11.3718 9.23402 11.3429 9.16417C11.3139 9.09431 11.2715 9.03085 11.218 8.97739C11.1646 8.92393 11.1011 8.88152 11.0312 8.8526C10.9614 8.82367 10.8868 8.80859 10.8112 8.8086Z" fill="#39baf6"></path>
</svg>