<svg height="100%" viewBox="0 0 24 24" fill="none" xmlns="http://www.w3.org/2000/svg">
<path d="M14.69 9.3227C14.69 9.4697 14.688 9.5993 14.69 9.7288C14.6846 9.87228 14.7081 10.0154 14.759 10.1496C14.8099 10.2839 14.8872 10.4066 14.9863 10.5104C15.0854 10.6143 15.2044 10.6972 15.3361 10.7543C15.4679 10.8114 15.6097 10.8415 15.7533 10.8428C15.9867 10.8573 16.2217 10.8507 16.4559 10.8484C16.8759 10.8444 16.993 10.7284 16.9934 10.3148C16.9946 9.28333 16.9946 8.25183 16.9934 7.2203C16.9934 6.7126 16.8966 6.616 16.3834 6.6159C14.5091 6.61537 12.6349 6.61537 10.7606 6.6159C9.6829 6.6159 8.6052 6.6139 7.5275 6.6172C7.1595 6.6184 7.0191 6.7359 7.0175 7.0652C7.01117 8.18107 7.01117 9.29693 7.0175 10.4128C7.0192 10.7103 7.1524 10.8354 7.454 10.8461C7.7161 10.8554 7.9793 10.8582 8.241 10.8442C8.38474 10.8449 8.52714 10.8166 8.65967 10.7609C8.79219 10.7053 8.91213 10.6234 9.01229 10.5203C9.11245 10.4172 9.19077 10.295 9.24256 10.1609C9.29435 10.0268 9.31855 9.88366 9.3137 9.74C9.3188 9.6023 9.3144 9.4643 9.3144 9.32H10.4437V14.6935C10.2877 14.6935 10.1568 14.6914 10.0259 14.6935C9.88259 14.6893 9.73992 14.7142 9.60657 14.7669C9.47323 14.8196 9.35201 14.8989 9.25029 14.9999C9.14858 15.101 9.06851 15.2217 9.01496 15.3547C8.9614 15.4877 8.93549 15.6302 8.9388 15.7735C8.93213 16.0359 8.93213 16.2984 8.9388 16.5611C8.93078 16.6201 8.93657 16.6802 8.95571 16.7366C8.97485 16.793 9.00682 16.8442 9.0491 16.8862C9.09138 16.9281 9.14282 16.9597 9.19937 16.9784C9.25592 16.9971 9.31604 17.0025 9.375 16.994C11.1275 16.9985 12.88 16.9985 14.6323 16.994C14.6914 17.0021 14.7515 16.9967 14.8082 16.978C14.8648 16.9594 14.9165 16.9281 14.9592 16.8865C15.0019 16.8448 15.0346 16.794 15.0547 16.7379C15.0748 16.6818 15.0819 16.6218 15.0753 16.5625C15.0833 16.2814 15.0881 15.9993 15.073 15.7188C15.0616 15.4441 14.9448 15.1843 14.7468 14.9936C14.5488 14.8028 14.2849 14.6957 14.01 14.6945C13.8633 14.6906 13.7164 14.6939 13.5638 14.6939V9.3227H14.69ZM11.6035 16.2039H9.6963C9.6963 16.0657 9.692 15.9372 9.6972 15.809C9.69317 15.7617 9.69955 15.7142 9.7159 15.6696C9.73225 15.6251 9.75817 15.5847 9.79182 15.5513C9.82548 15.5178 9.86606 15.4922 9.9107 15.4762C9.95535 15.4601 10.003 15.454 10.0502 15.4584C10.2938 15.4545 10.5377 15.4619 10.7812 15.4541C11.0968 15.4441 11.2357 15.3184 11.2365 15.0079C11.2413 13.0012 11.2413 10.9946 11.2365 8.9879C11.2357 8.6779 11.0971 8.5489 10.7788 8.5451C10.1885 8.5379 9.5981 8.5379 9.0077 8.5451C8.674 8.5492 8.5577 8.677 8.5527 9.0131C8.5497 9.21 8.5527 9.4069 8.5518 9.6039C8.5496 9.9887 8.4559 10.0812 8.0694 10.0818C7.9858 10.0818 7.9023 10.0818 7.7884 10.0818V7.4106H11.6032L11.6035 16.2039ZM21.8055 18.6739C21.6944 18.6706 21.5822 18.6711 21.4596 18.6715V6.4845C21.4596 6.4616 21.462 6.4368 21.4644 6.412C21.4886 6.28629 21.4671 6.15608 21.4038 6.0448C21.2972 5.85932 21.1298 5.71634 20.93 5.64C20.8611 5.61782 20.7882 5.61052 20.7162 5.61859C20.6443 5.62666 20.5748 5.6499 20.5125 5.6868C20.4403 5.73172 20.3782 5.79116 20.3301 5.86134C20.2821 5.93152 20.2492 6.01092 20.2334 6.0945C20.2086 6.23163 20.199 6.37107 20.2047 6.5103L20.2033 18.5518C20.2033 18.5918 20.2019 18.631 20.1995 18.6711C19.9861 18.6421 19.769 18.6607 19.5636 18.7256C19.3583 18.7905 19.1699 18.9001 19.0119 19.0464C18.8799 19.201 18.7811 19.3811 18.7216 19.5755C18.6622 19.7699 18.6434 19.9744 18.6665 20.1764V20.1826H5.3339C5.3339 20.1057 5.3339 20.0312 5.3325 19.9568C5.34225 19.784 5.31509 19.6112 5.25282 19.4498C5.19056 19.2883 5.09461 19.142 4.97138 19.0205C4.84815 18.8991 4.70046 18.8053 4.53814 18.7453C4.37582 18.6854 4.20259 18.6608 4.03 18.673C3.4575 18.6701 2.8844 18.6687 2.3119 18.673C2.1389 18.6617 1.96546 18.6872 1.80303 18.7478C1.64061 18.8084 1.49288 18.9028 1.3696 19.0247C1.24633 19.1466 1.15031 19.2933 1.08787 19.455C1.02544 19.6167 0.998009 19.7899 1.0074 19.963C1.00307 20.5454 1.00307 21.128 1.0074 21.7108C0.998975 21.8813 1.02628 22.0518 1.08756 22.2111C1.14884 22.3705 1.24274 22.5153 1.36326 22.6363C1.48377 22.7572 1.62823 22.8517 1.78737 22.9136C1.94651 22.9754 2.11683 23.0034 2.2874 22.9956C2.8781 22.9994 3.4707 22.9994 4.0614 22.9956C4.22929 23.0044 4.39716 22.978 4.55428 22.9182C4.7114 22.8584 4.85432 22.7665 4.9739 22.6483C5.09348 22.5301 5.18709 22.3883 5.24875 22.2319C5.31041 22.0755 5.33877 21.908 5.332 21.74C5.33387 21.6564 5.3345 21.5731 5.3339 21.49H18.6656C18.6641 21.6 18.6641 21.7063 18.6699 21.8113C18.679 22.1296 18.8123 22.4316 19.0413 22.6528C19.2703 22.8741 19.5768 22.9968 19.8952 22.9949C20.2101 22.9982 20.525 23.0001 20.8399 23.0006C21.1548 23.0011 21.4697 22.9991 21.7846 22.9944C22.0948 22.9988 22.3943 22.8811 22.6186 22.6668C22.8429 22.4524 22.974 22.1586 22.9837 21.8485C23.0051 21.1567 23.0046 20.4702 22.9822 19.8075C22.9716 19.5028 22.8428 19.2141 22.6231 19.0026C22.4034 18.7911 22.1104 18.6729 21.8055 18.6739ZM4.017 21.7405C3.8209 21.7367 3.6239 21.7386 3.4283 21.7386L3.17 21.74L2.2695 21.7113C2.2733 21.1289 2.2738 20.5469 2.2528 19.9362C2.2737 19.9301 2.29548 19.9277 2.3172 19.9291H2.3196C2.8922 19.9314 3.4643 19.9314 4.0359 19.9291L4.0349 19.6848L4.0854 19.9739C4.0844 20.5459 4.0839 21.1183 4.0935 21.7328C4.06962 21.744 4.04263 21.7467 4.017 21.7405ZM21.7464 21.6737C21.7464 21.7281 21.7355 21.7458 21.692 21.74C21.4187 21.7386 21.1453 21.738 20.872 21.7381C20.5729 21.7381 20.2738 21.7387 19.9745 21.74C19.923 21.7534 19.913 21.7334 19.9283 21.7014C19.9335 21.1275 19.9345 20.5541 19.9283 19.9807C19.9283 19.9559 19.9297 19.9392 19.9283 19.932C19.9397 19.9301 19.9597 19.931 19.9869 19.9282C20.1859 19.931 20.3825 19.9315 20.5781 19.9296L20.8339 19.9291L21.0977 19.9301C21.2843 19.9301 21.4699 19.932 21.6564 19.9272H21.6741C21.6958 19.9263 21.7175 19.9275 21.739 19.9306C21.7458 19.9564 21.7486 19.9831 21.7471 20.0098C21.7407 20.5641 21.7431 21.1184 21.7464 21.6737ZM2.2249 5.3249C2.3294 5.3282 2.4349 5.3272 2.5422 5.3268L2.5427 17.46L2.5422 17.5288C2.53845 17.6307 2.5431 17.7328 2.5561 17.8339C2.56793 17.9858 2.63774 18.1274 2.75108 18.2292C2.86441 18.3311 3.01259 18.3854 3.1649 18.381C3.183 18.381 3.2016 18.3801 3.2207 18.3791C3.37456 18.374 3.52043 18.3094 3.62759 18.1989C3.73476 18.0883 3.79484 17.9405 3.7952 17.7866C3.8006 17.7112 3.8022 17.6356 3.8 17.56L3.799 5.3244C5.0047 5.23 5.17 5.0632 5.3306 3.8142H18.6656C18.6651 3.9002 18.6651 3.9837 18.667 4.0663C18.662 4.23442 18.6917 4.40176 18.7543 4.55788C18.8168 4.71399 18.9109 4.85553 19.0307 4.97364C19.1504 5.09176 19.2932 5.18391 19.4502 5.24435C19.6071 5.30478 19.7749 5.33221 19.9429 5.3249C20.5441 5.32957 21.1453 5.3294 21.7464 5.3244C21.9073 5.33064 22.0678 5.30431 22.2182 5.24699C22.3687 5.18968 22.506 5.10255 22.6219 4.99086C22.7379 4.87916 22.83 4.74519 22.8929 4.59698C22.9558 4.44878 22.9881 4.2894 22.9879 4.1284C23.0037 3.503 23.0042 2.8556 22.9879 2.2039C22.989 2.04289 22.9574 1.88334 22.8952 1.73485C22.8329 1.58636 22.7413 1.452 22.6257 1.33988C22.5102 1.22776 22.3731 1.14019 22.2228 1.08244C22.0725 1.0247 21.9121 0.997985 21.7512 1.0039C21.14 0.9991 20.5296 0.9991 19.9199 1.0039C19.7545 0.99993 19.59 1.02952 19.4364 1.09089C19.2827 1.15226 19.1431 1.24413 19.026 1.36096C18.9088 1.47779 18.8166 1.61715 18.7548 1.77062C18.693 1.92409 18.663 2.08849 18.6665 2.2539C18.6646 2.3393 18.6646 2.4248 18.6651 2.5103H5.3339C5.3339 2.4133 5.3339 2.3193 5.3316 2.2252C5.3343 2.06214 5.3038 1.90023 5.24196 1.74932C5.18012 1.59842 5.08822 1.46167 4.97187 1.3474C4.85551 1.23313 4.71712 1.14372 4.56512 1.08462C4.41312 1.02551 4.25069 0.997949 4.0877 1.0036C3.4765 0.9988 2.86607 0.9988 2.2564 1.0036C2.09546 0.998596 1.93514 1.02582 1.78488 1.08368C1.63461 1.14154 1.49743 1.22886 1.3814 1.34051C1.26538 1.45215 1.17285 1.58587 1.10925 1.7338C1.04566 1.88173 1.01229 2.04089 1.0111 2.2019C0.9963 2.8302 0.9963 3.4777 1.0111 4.126C1.01403 4.44564 1.14333 4.75114 1.37075 4.97577C1.59817 5.2004 1.90524 5.32592 2.2249 5.3249ZM19.9309 3.1492V2.8813C19.9309 2.6794 19.9309 2.4769 19.9419 2.2607L21.0479 2.2597L21.7445 2.2922V3.4547L21.7116 4.0687L19.93 4.0511C19.9314 3.8429 19.9317 3.6344 19.9309 3.4256V3.1492ZM2.2709 3.164V2.9109C2.2719 2.7033 2.2723 2.4956 2.2948 2.2597H2.7375L4.0835 2.2783C4.0855 2.8683 4.0855 3.4583 4.0654 4.0678L2.7385 4.0687L2.2693 4.04C2.2726 3.8328 2.2722 3.6256 2.2712 3.4179L2.2709 3.164ZM17.39 18.9156C17.617 18.913 17.8382 18.8433 18.0258 18.7154C18.2134 18.5875 18.359 18.4069 18.4442 18.1965C18.5295 17.9861 18.5507 17.7552 18.5052 17.5327C18.4596 17.3103 18.3493 17.1063 18.1881 16.9463C18.027 16.7864 17.8222 16.6777 17.5994 16.6338C17.3766 16.5899 17.1458 16.6129 16.9361 16.6997C16.7263 16.7866 16.5469 16.9335 16.4204 17.1221C16.2939 17.3106 16.2259 17.5323 16.225 17.7594C16.2273 18.0668 16.3511 18.3609 16.5693 18.5775C16.7876 18.794 17.0825 18.9156 17.39 18.9156ZM17.3918 17.3869C17.4911 17.3897 17.5854 17.4311 17.6545 17.5025C17.7237 17.5738 17.7622 17.6694 17.7618 17.7687C17.7578 17.8679 17.7157 17.9616 17.6441 18.0304C17.5726 18.0992 17.4772 18.1377 17.378 18.1378C17.3264 18.1383 17.2753 18.1283 17.2278 18.1083C17.1802 18.0884 17.1373 18.0589 17.1016 18.0217C17.0658 17.9845 17.0381 17.9403 17.0201 17.892C17.0021 17.8437 16.9942 17.7922 16.9968 17.7407C16.9993 17.6915 17.0115 17.6433 17.0328 17.5988C17.054 17.5543 17.0838 17.5145 17.1205 17.4816C17.1572 17.4487 17.2001 17.4234 17.2466 17.4072C17.2931 17.3909 17.3426 17.384 17.3918 17.3869Z" fill="#6c5bf3"></path>
</svg>